<svg width="159" height="149" viewBox="0 0 159 149" fill="none" xmlns="http://www.w3.org/2000/svg">
<path d="M131.633 147.609H27.3815C17.0838 138.017 11.3124 132.641 1.01465 123.049V25.9393C11.3124 16.3471 17.0838 10.971 27.3815 1.37878H131.633C141.931 10.971 147.702 16.3471 158 25.9393V123.049C147.702 132.641 141.931 138.017 131.633 147.609Z" stroke="#E6D5C0" stroke-width="2" stroke-linecap="round" stroke-linejoin="round"/>
<path d="M117.366 127.606H41.634C34.1488 120.634 29.9594 116.732 22.4741 109.759V39.2158C29.9594 32.2433 34.1488 28.3409 41.634 21.3685H117.366C124.851 28.3409 129.04 32.2433 136.525 39.2158V109.759C129.04 116.732 124.851 120.634 117.366 127.606Z" stroke="#E6D5C0" stroke-width="2" stroke-linecap="round" stroke-linejoin="round"/>
<path d="M27.3669 1.37878L41.6343 21.382" stroke="#E6D5C0" stroke-width="2" stroke-linecap="round" stroke-linejoin="round"/>
<path d="M1 25.9394L22.4743 39.2158" stroke="#E6D5C0" stroke-width="2" stroke-linecap="round" stroke-linejoin="round"/>
<path d="M1 123.049L22.4743 109.773" stroke="#E6D5C0" stroke-width="2" stroke-linecap="round" stroke-linejoin="round"/>
<path d="M27.3669 147.61L41.6343 127.606" stroke="#E6D5C0" stroke-width="2" stroke-linecap="round" stroke-linejoin="round"/>
<path d="M131.633 147.61L117.366 127.606" stroke="#E6D5C0" stroke-width="2" stroke-linecap="round" stroke-linejoin="round"/>
<path d="M158 123.049L136.526 109.773" stroke="#E6D5C0" stroke-width="2" stroke-linecap="round" stroke-linejoin="round"/>
<path d="M158 25.9394L136.526 39.2158" stroke="#E6D5C0" stroke-width="2" stroke-linecap="round" stroke-linejoin="round"/>
<path d="M131.633 1.37878L117.366 21.382" stroke="#E6D5C0" stroke-width="2" stroke-linecap="round" stroke-linejoin="round"/>
</svg>
