<svg width="57" height="62" viewBox="0 0 57 62" fill="none" xmlns="http://www.w3.org/2000/svg">
<path d="M1 47.8822V13.1361C7.56374 8.39641 11.243 5.73966 17.8067 1H39.1933C45.757 5.73966 49.4363 8.39641 56 13.1361V47.8822C49.4363 52.6219 45.757 55.2786 39.1933 60.0183H17.8067C11.243 55.2786 7.56374 52.6219 1 47.8822Z" stroke="#E6D5C0" stroke-width="2" stroke-linecap="round" stroke-linejoin="round"/>
<path d="M28.497 8.6217C32.1998 8.6217 35.6023 10.3135 38.3338 13.1361H38.7341V1H17.8538V13.1361H18.6661C21.3976 10.3178 24.8001 8.6217 28.5029 8.6217H28.497Z" stroke="#E6D5C0" stroke-width="2" stroke-linecap="round" stroke-linejoin="round"/>
<path d="M38.7283 60.0181V47.8821H38.328C35.5965 50.7004 32.194 52.3964 28.4912 52.3964C24.7884 52.3964 21.3859 50.7046 18.6544 47.8821H17.8421V60.0181H38.7224H38.7283Z" stroke="#E6D5C0" stroke-width="2" stroke-linecap="round" stroke-linejoin="round"/>
<path d="M12.2849 30.5092C12.2849 23.9289 14.4454 18.0373 17.8538 14.0245V13.1318H1V47.878H17.8538V46.9853C14.4454 42.9725 12.2849 37.0852 12.2849 30.5006V30.5092Z" stroke="#E6D5C0" stroke-width="2" stroke-linecap="round" stroke-linejoin="round"/>
<path d="M44.7151 30.5091C44.7151 37.3571 42.384 43.4698 38.7342 47.4826V47.8822H56.0001V13.136H38.7342V13.5356C42.384 17.5483 44.7151 23.6568 44.7151 30.5091Z" stroke="#E6D5C0" stroke-width="2" stroke-linecap="round" stroke-linejoin="round"/>
<path d="M38.7282 13.5356V13.136H38.3279C38.4574 13.272 38.5987 13.3953 38.7282 13.5356Z" stroke="#E6D5C0" stroke-width="2" stroke-linecap="round" stroke-linejoin="round"/>
<path d="M38.3338 47.8822H38.7341V47.4827C38.6046 47.6229 38.4692 47.7462 38.3338 47.8822Z" stroke="#E6D5C0" stroke-width="2" stroke-linecap="round" stroke-linejoin="round"/>
<path d="M17.8538 46.9895V47.8822H18.6661C18.3895 47.5974 18.1187 47.2998 17.8538 46.9895Z" stroke="#E6D5C0" stroke-width="2" stroke-linecap="round" stroke-linejoin="round"/>
<path d="M18.6604 13.136H17.848V14.0287C18.1129 13.7184 18.3837 13.425 18.6604 13.136Z" stroke="#E6D5C0" stroke-width="2" stroke-linecap="round" stroke-linejoin="round"/>
<path d="M18.6603 47.8821C21.3917 50.7004 24.7943 52.3964 28.4971 52.3964C32.1998 52.3964 35.6024 50.7046 38.3338 47.8821" stroke="#E6D5C0" stroke-width="2" stroke-linecap="round" stroke-linejoin="round"/>
<path d="M38.7282 47.4827C42.378 43.4699 44.7092 37.3615 44.7092 30.5092C44.7092 23.6569 42.378 17.5484 38.7282 13.5356" stroke="#E6D5C0" stroke-width="2" stroke-linecap="round" stroke-linejoin="round"/>
<path d="M55.9941 13.136L44.7151 30.5091L55.9941 47.8822" stroke="#E6D5C0" stroke-width="2" stroke-linecap="round" stroke-linejoin="round"/>
<path d="M1 13.136L12.2849 30.5091L1 47.8822" stroke="#E6D5C0" stroke-width="2" stroke-linecap="round" stroke-linejoin="round"/>
<path d="M39.1933 60.0182L28.497 52.3965L17.8538 60.0182" stroke="#E6D5C0" stroke-width="2" stroke-linecap="round" stroke-linejoin="round"/>
<path d="M39.1933 1L27.7788 8.64298L17.8538 1" stroke="#E6D5C0" stroke-width="2" stroke-linecap="round" stroke-linejoin="round"/>
</svg>
