<svg width="79" height="53" viewBox="0 0 79 53" fill="none" xmlns="http://www.w3.org/2000/svg">
<path d="M1 41.5744V10.5215C6.28424 6.80346 9.24823 4.718 14.5325 1H64.4675L78 10.5215V41.5744C72.7158 45.2924 69.7518 47.3779 64.4675 51.0959H14.5325C9.24823 47.3779 6.28424 45.2924 1 41.5744Z" stroke="#E3D2BE" stroke-width="2" stroke-linecap="round" stroke-linejoin="round"/>
<path d="M7.1189 39.1057V12.9902C11.5613 9.86448 14.0514 8.11249 18.5009 4.98181H60.4919C64.9343 8.10752 67.4244 9.8595 71.8739 12.9902V39.1057L60.4919 47.1141H18.5009C14.0584 43.9884 11.5684 42.2364 7.1189 39.1057Z" stroke="#E3D2BE" stroke-width="2" stroke-linecap="round" stroke-linejoin="round"/>
<path d="M14.1929 36.2539V15.8422L23.0848 9.58582H55.908L64.7999 15.8422V36.2539C61.3266 38.6977 59.3813 40.0664 55.908 42.5102H23.0848C19.6115 40.0664 17.6662 38.6977 14.1929 36.2539Z" stroke="#E3D2BE" stroke-width="2" stroke-linecap="round" stroke-linejoin="round"/>
<path d="M1 10.5215L14.1929 15.8422" stroke="#E3D2BE" stroke-width="2" stroke-linecap="round" stroke-linejoin="round"/>
<path d="M14.5324 1L23.0848 9.58076" stroke="#E3D2BE" stroke-width="2" stroke-linecap="round" stroke-linejoin="round"/>
<path d="M64.4606 1L55.9082 9.58076" stroke="#E3D2BE" stroke-width="2" stroke-linecap="round" stroke-linejoin="round"/>
<path d="M77.993 10.5215L64.8 15.8422" stroke="#E3D2BE" stroke-width="2" stroke-linecap="round" stroke-linejoin="round"/>
<path d="M77.993 41.5744L64.8 36.2538" stroke="#E3D2BE" stroke-width="2" stroke-linecap="round" stroke-linejoin="round"/>
<path d="M64.4606 51.0959L55.9082 42.5101" stroke="#E3D2BE" stroke-width="2" stroke-linecap="round" stroke-linejoin="round"/>
<path d="M14.5325 51.0959L23.0849 42.5101" stroke="#E3D2BE" stroke-width="2" stroke-linecap="round" stroke-linejoin="round"/>
<path d="M1 41.5744L14.1929 36.2538" stroke="#E3D2BE" stroke-width="2" stroke-linecap="round" stroke-linejoin="round"/>
</svg>
