<svg width="78" height="58" viewBox="0 0 78 58" fill="none" xmlns="http://www.w3.org/2000/svg">
<path d="M23.2592 56.5674L1 40.289V17.2733L23.2592 1H54.7408L77 17.2733V40.289L54.7408 56.5674H23.2592Z" stroke="#E3D2BE" stroke-width="2" stroke-linecap="round" stroke-linejoin="round"/>
<path d="M27.3651 49.3202L10.9127 37.2869V20.2749L27.3651 8.24683H50.6348L67.0872 20.2749V37.2869L50.6348 49.3202H27.3651Z" stroke="#E3D2BE" stroke-width="2" stroke-linecap="round" stroke-linejoin="round"/>
<path d="M23.2592 1L27.3652 8.24702" stroke="#E3D2BE" stroke-width="2" stroke-linecap="round" stroke-linejoin="round"/>
<path d="M54.7409 1L50.6349 8.24702" stroke="#E3D2BE" stroke-width="2" stroke-linecap="round" stroke-linejoin="round"/>
<path d="M77 17.2731L67.0873 20.2749" stroke="#E3D2BE" stroke-width="2" stroke-linecap="round" stroke-linejoin="round"/>
<path d="M77 40.2888L67.0873 37.287" stroke="#E3D2BE" stroke-width="2" stroke-linecap="round" stroke-linejoin="round"/>
<path d="M54.7409 56.5672L50.6349 49.3202" stroke="#E3D2BE" stroke-width="2" stroke-linecap="round" stroke-linejoin="round"/>
<path d="M23.2592 56.5672L27.3652 49.3202" stroke="#E3D2BE" stroke-width="2" stroke-linecap="round" stroke-linejoin="round"/>
<path d="M1 40.2888L10.9127 37.287" stroke="#E3D2BE" stroke-width="2" stroke-linecap="round" stroke-linejoin="round"/>
<path d="M1 17.2731L10.9127 20.2749" stroke="#E3D2BE" stroke-width="2" stroke-linecap="round" stroke-linejoin="round"/>
</svg>
