<svg width="123" height="85" viewBox="0 0 123 85" fill="none" xmlns="http://www.w3.org/2000/svg">
<g clip-path="url(#clip0_214_1512)">
<path d="M40.9757 5.92955L20.4392 3.36406L40.9757 0.806641H82.0325L102.561 3.36406L82.0325 5.92955H40.9757Z" stroke="#F3E7D8" stroke-width="2" stroke-linecap="round" stroke-linejoin="round"/>
<path d="M122.189 19.2168L91.8465 23.0005H31.1535L0.811096 19.2168" stroke="#F3E7D8" stroke-width="2" stroke-linecap="round" stroke-linejoin="round"/>
<path d="M102.561 3.36401L122.189 19.2168L61.5041 84.1931L0.811096 19.2168L20.4392 3.36401" stroke="#F3E7D8" stroke-width="2" stroke-linecap="round" stroke-linejoin="round"/>
<path d="M82.0324 5.92944L91.8465 23.0004L61.5041 84.193L31.1535 23.0004L40.9757 5.92944" stroke="#F3E7D8" stroke-width="2" stroke-linecap="round" stroke-linejoin="round"/>
<path d="M69.842 5.92959L91.8465 23.0006L94.442 4.38062L107.022 21.1047L61.5041 84.1932L15.9864 21.1047L27.3901 4.38062L31.1536 23.0006L50.9114 5.92959L46.3207 23.0006L61.5041 84.1932" stroke="#F3E7D8" stroke-width="2" stroke-linecap="round" stroke-linejoin="round"/>
<path d="M60.3767 5.92944L61.5041 84.193L76.0548 23.0004L69.8419 5.92944L60.3767 23.0004L50.9114 5.92944" stroke="#F3E7D8" stroke-width="2" stroke-linecap="round" stroke-linejoin="round"/>
<path d="M122.189 19.2169L94.442 4.38062" stroke="#F3E7D8" stroke-width="2" stroke-linecap="round" stroke-linejoin="round"/>
<path d="M0.811096 19.2169L27.3901 4.38062" stroke="#F3E7D8" stroke-width="2" stroke-linecap="round" stroke-linejoin="round"/>
</g>
<defs>
<clipPath id="clip0_214_1512">
<rect width="123" height="85" fill="white"/>
</clipPath>
</defs>
</svg>
