<svg width="263" height="59" viewBox="0 0 263 59" fill="none" xmlns="http://www.w3.org/2000/svg">
<path d="M1.9375 58.6719C1.625 58.6719 1.38021 58.5625 1.20312 58.3438C0.880208 57.9792 0.682292 57.401 0.609375 56.6094C0.526042 55.7135 0.484375 54.4115 0.484375 52.7031C0.484375 50.5156 0.619792 47.5365 0.890625 43.7656L0.96875 42.6406C1.04167 41.6927 1.1875 40.2708 1.40625 38.375C1.83333 34.7083 2.22917 31.5729 2.59375 28.9688C3.69792 21.4271 5.25 13.9792 7.25 6.625C7.39583 6.04167 7.625 5.28646 7.9375 4.35938C8.71875 1.97396 9.54688 0.604167 10.4219 0.25C10.651 0.260417 10.8333 0.328125 10.9688 0.453125C11.125 0.609375 11.2031 0.78125 11.2031 0.96875C11.2031 1.08333 11.1771 1.18229 11.125 1.26562C10.3125 2.78646 9.67708 4.1875 9.21875 5.46875C8.76042 6.75 8.36458 8.08333 8.03125 9.46875C7.16667 12.9062 6.42188 16.3646 5.79688 19.8438C5.03646 24.0208 4.42708 27.8229 3.96875 31.25L3.92188 31.6719C4.01562 31.6927 4.10938 31.724 4.20312 31.7656C4.76562 30.8802 5.76042 29.4688 7.1875 27.5312C8.61458 25.5938 10.0781 23.6667 11.5781 21.75C13.0781 19.8333 14.2135 18.4688 14.9844 17.6562C15.2031 17.4479 15.4271 17.3438 15.6562 17.3438C16.0312 17.3438 16.3281 17.5208 16.5469 17.875C16.6406 18.0104 16.6875 18.1406 16.6875 18.2656C16.6875 18.349 16.6615 18.4323 16.6094 18.5156C15.8594 19.0677 14.6927 20.3385 13.1094 22.3281C11.5365 24.3073 9.97917 26.3854 8.4375 28.5625C5.86458 32.1979 4.57812 34.3906 4.57812 35.1406C4.57812 35.1823 4.58854 35.3073 4.60938 35.5156C4.64062 35.724 5 36.0625 5.6875 36.5312C6.19792 37 7.09375 37.5156 8.375 38.0781C9.65625 38.6302 11.0625 39.1354 12.5938 39.5938C14.9062 40.2917 16.6719 40.6406 17.8906 40.6406C18.4844 40.6406 18.9115 40.5469 19.1719 40.3594L19.1875 40.3438C19.375 40.2188 19.5208 40.1562 19.625 40.1562C19.7292 40.1562 19.8281 40.2083 19.9219 40.3125C20.099 40.5208 20.1875 40.724 20.1875 40.9219C20.1875 41.0781 20.1354 41.2344 20.0312 41.3906C19.6562 41.8281 18.9792 42.0469 18 42.0469C17.75 42.0469 17.1979 42.0104 16.3438 41.9375C15.5 41.8542 14.1979 41.5521 12.4375 41.0312C10.6771 40.5104 9.04167 39.9323 7.53125 39.2969C6.02083 38.6615 4.93229 38.099 4.26562 37.6094C4.04688 37.4531 3.84896 37.375 3.67188 37.375C3.59896 37.375 3.48958 37.4062 3.34375 37.4688C3.19792 37.5312 3.08854 37.7344 3.01562 38.0781C2.98438 38.2552 2.89062 39.1875 2.73438 40.875C2.58854 42.5521 2.44271 44.5156 2.29688 46.7656C2.10938 49.5052 2.01562 51.7396 2.01562 53.4688C2.01562 55.0833 2.11458 56.1615 2.3125 56.7031C2.4375 56.9948 2.5 57.2917 2.5 57.5938C2.5 58.2708 2.3125 58.6302 1.9375 58.6719ZM20.0938 44.125C19.9688 44.125 19.8333 44.0938 19.6875 44.0312C19.3542 43.8438 19.1875 43.5729 19.1875 43.2188C19.1875 42.9271 19.2708 42.474 19.4375 41.8594C20.3229 39.0156 21.3125 36.2083 22.4062 33.4375C22.6458 32.8125 22.9271 32.5 23.25 32.5L23.4062 32.5156C23.6979 32.6094 23.8438 32.8073 23.8438 33.1094C23.8438 33.3177 23.75 33.6615 23.5625 34.1406L23.4531 34.4844C23.1927 35.2656 22.9115 36.0469 22.6094 36.8281C22.1198 38.0781 21.6979 39.3542 21.3438 40.6562C21.3958 40.6771 21.4427 40.7031 21.4844 40.7344C21.526 40.7552 21.5677 40.776 21.6094 40.7969L22.2656 40.0625C22.7656 39.5 23.2708 38.9427 23.7812 38.3906C24.5729 37.5052 25.4427 36.6979 26.3906 35.9688C27.0677 35.4688 27.6406 35.2188 28.1094 35.2188C28.8698 35.2188 29.3646 35.8854 29.5938 37.2188L29.625 37.3281C29.7188 37.9323 29.849 38.5208 30.0156 39.0938C30.2656 39.8854 30.6146 40.2812 31.0625 40.2812C31.3438 40.2812 31.6875 40.1615 32.0938 39.9219C32.2917 39.8177 33.0365 39.2083 34.3281 38.0938C35.6302 36.9792 36.4323 36.3333 36.7344 36.1562C36.8802 36.0833 37.0156 36.0469 37.1406 36.0469C37.1719 36.0469 37.2344 36.0521 37.3281 36.0625C37.4323 36.0625 37.5365 36.1562 37.6406 36.3438C37.6927 36.4375 37.7188 36.526 37.7188 36.6094C37.7188 36.7969 37.6094 36.974 37.3906 37.1406C37.1823 37.3073 36.875 37.5729 36.4688 37.9375C34.2812 40 32.7135 41.1979 31.7656 41.5312C31.4948 41.6146 31.2448 41.6562 31.0156 41.6562C30.2865 41.6562 29.6927 41.2812 29.2344 40.5312C28.724 39.6667 28.4115 38.7292 28.2969 37.7188C28.2448 37.1458 28.0729 36.8594 27.7812 36.8594C27.5833 36.8594 27.3281 36.9844 27.0156 37.2344C25.9219 38.099 24.9323 39.0677 24.0469 40.1406L23.0781 41.2812C22.6302 41.8125 22.1771 42.3385 21.7188 42.8594C20.9896 43.7031 20.4479 44.125 20.0938 44.125ZM37.6562 44.2656C37.3333 44.2656 37.0156 44.1719 36.7031 43.9844C36.2344 43.6719 35.9479 43.2708 35.8438 42.7812C35.7604 42.3958 35.7188 41.974 35.7188 41.5156C35.7188 40.4427 35.974 39.1771 36.4844 37.7188C36.5156 37.6042 36.5833 37.3958 36.6875 37.0938C36.875 36.6771 36.9688 36.2656 36.9688 35.8594V35.6875C36.9688 34.8333 37.4583 34.2552 38.4375 33.9531C39.5417 33.5469 40.6771 33.3385 41.8438 33.3281C42.6667 33.349 43.2865 33.5833 43.7031 34.0312C44.026 34.3646 44.1875 34.7917 44.1875 35.3125C44.1875 35.4896 44.1667 35.6771 44.125 35.875C43.4375 39.1458 41.7448 41.776 39.0469 43.7656C38.5885 44.099 38.125 44.2656 37.6562 44.2656ZM37.8281 42.9375C38.0469 42.9375 38.3229 42.7969 38.6562 42.5156C39 42.2865 39.3229 42 39.625 41.6562C40.8438 40.3333 41.8073 38.8646 42.5156 37.25C42.7135 36.7604 42.8542 36.2604 42.9375 35.75L42.9531 35.625C42.9531 35.1146 42.5573 34.8594 41.7656 34.8594C41.3281 34.8594 40.7552 34.9896 40.0469 35.25C39.349 35.5 38.849 35.875 38.5469 36.375C37.7552 38.0208 37.25 39.724 37.0312 41.4844L37.0469 41.875L37.0312 42.1094C37.0312 42.2135 37.0417 42.3333 37.0625 42.4688C37.0938 42.5938 37.1927 42.7031 37.3594 42.7969C37.526 42.8906 37.6823 42.9375 37.8281 42.9375ZM47.7188 45.6719C47.625 45.6719 47.5208 45.6562 47.4062 45.625C46.8854 45.4375 46.599 45.0677 46.5469 44.5156C46.474 43.9219 46.4375 43.3281 46.4375 42.7344C46.4375 42.2552 46.4896 41.5104 46.5938 40.5C46.7604 38.625 47.0208 36.7604 47.375 34.9062L47.3906 34.8438C47.4635 34.4688 47.5573 34.1042 47.6719 33.75C47.8073 33.2396 48.0365 32.9844 48.3594 32.9844C48.4323 32.9844 48.5104 32.9948 48.5938 33.0156C48.8438 33.1094 48.9688 33.2917 48.9688 33.5625C48.9688 33.7396 48.8698 34.3021 48.6719 35.25C48.4635 36.3542 48.2812 37.6094 48.125 39.0156C47.9271 40.3594 47.8281 41.7031 47.8281 43.0469V43.4375L48.0312 43.4688L48.125 43.4844C48.4375 42.9219 48.7448 42.3542 49.0469 41.7812L51.4062 37.4531C51.7812 36.7031 52.2448 36.0156 52.7969 35.3906C53.1615 35.0156 53.5 34.8281 53.8125 34.8281C53.8854 34.8281 54.0312 34.8594 54.25 34.9219C54.4688 34.974 54.6667 35.3125 54.8438 35.9375C54.9479 36.4167 55 36.8958 55 37.375L54.9844 37.8281V39.0156C54.9844 39.3906 54.974 39.7604 54.9531 40.125C54.9427 40.4792 54.9375 40.8333 54.9375 41.1875C54.9375 41.9688 54.9792 42.7656 55.0625 43.5781C55.4583 43.4635 55.75 43.1823 55.9375 42.7344C56.3958 41.8281 57.3542 40.1823 58.8125 37.7969C59.75 36.2552 60.7865 34.7708 61.9219 33.3438C62.6198 32.4792 63.099 32.0469 63.3594 32.0469C63.4844 32.0469 63.6094 32.0885 63.7344 32.1719C63.901 32.3073 63.9844 32.4531 63.9844 32.6094C63.974 32.776 63.9219 32.9427 63.8281 33.1094C63.7031 33.3177 63.5833 33.4792 63.4688 33.5938C61.5729 35.9688 59.5521 39.0885 57.4062 42.9531C57.0208 43.6406 56.5938 44.3073 56.125 44.9531C55.7917 45.4219 55.4271 45.6562 55.0312 45.6562C54.6146 45.6562 54.2969 45.4844 54.0781 45.1406C53.7865 44.7031 53.6302 43.8125 53.6094 42.4688C53.599 41.1979 53.5938 39.3958 53.5938 37.0625C53.4062 37.0729 53.2656 37.125 53.1719 37.2188C53.0885 37.3125 53.0156 37.4219 52.9531 37.5469L52.875 37.7031C51.8854 39.3281 50.9792 41 50.1562 42.7188L50.1094 42.8125C49.724 43.625 49.2552 44.3854 48.7031 45.0938C48.3802 45.4792 48.0521 45.6719 47.7188 45.6719ZM82.6875 52.0781C82.2604 52.0781 81.6146 51.9688 80.75 51.75C79.8958 51.5312 79.0677 50.7656 78.2656 49.4531C77.2344 47.6302 76.7083 45.6979 76.6875 43.6562C76.6562 42.8854 76.6406 42.1146 76.6406 41.3438C76.6406 40.3125 76.6719 39.0885 76.7344 37.6719C76.8073 36.2552 77.0208 34.6562 77.375 32.875C77.4688 32.5 77.5156 32.1979 77.5156 31.9688C77.5156 31.7396 77.4688 31.5833 77.375 31.5C77.2292 31.3646 76.8646 31.2969 76.2812 31.2969L75.375 31.3125C74.7188 31.3125 74.0885 31.2344 73.4844 31.0781C72.1094 30.6406 71.4219 29.8698 71.4219 28.7656C71.4219 28.5365 71.4479 28.2969 71.5 28.0469C71.7708 27.1615 72.2396 26.3594 72.9062 25.6406C74.6771 23.6198 76.724 21.8333 79.0469 20.2812C80.401 19.3854 81.2656 18.224 81.6406 16.7969C82.0573 14.7969 82.5052 13.349 82.9844 12.4531C83.2031 12.0365 83.4323 11.8281 83.6719 11.8281C83.9531 11.8281 84.2448 12.099 84.5469 12.6406C84.5885 12.724 84.6094 12.8281 84.6094 12.9531C84.6094 13.3906 84.3385 14.1719 83.7969 15.2969C83.5469 15.849 83.3229 16.3906 83.125 16.9219C84.1875 16.4427 85.2344 16.0104 86.2656 15.625C87.0781 15.3125 87.8125 15.0104 88.4688 14.7188C89.8646 14.0833 91.3438 13.6302 92.9062 13.3594C93.4896 13.2656 94.0417 13.2188 94.5625 13.2188C95.7812 13.2188 96.9479 13.5312 98.0625 14.1562C99.1771 14.7708 99.9688 15.9062 100.438 17.5625C100.688 18.5417 100.812 19.5208 100.812 20.5C100.812 21.25 100.74 22 100.594 22.75C100.406 23.8438 99.9688 25.6927 99.2812 28.2969C98.6354 30.724 97.5052 33.7969 95.8906 37.5156C94.8698 39.8698 93.6771 42.1667 92.3125 44.4062C90.9271 46.7083 89.4062 48.5312 87.75 49.875C86.0312 51.3438 84.3438 52.0781 82.6875 52.0781ZM82.8906 50.5938C83.526 50.5938 84.1875 50.4167 84.875 50.0625C86.4688 49.1667 87.7969 48.0573 88.8594 46.7344C90.9427 43.9531 92.6562 41.0052 94 37.8906C95.3438 34.776 96.5156 31.6406 97.5156 28.4844C97.5677 28.3177 97.5938 28.1719 97.5938 28.0469C97.5938 27.5885 97.2708 27.3594 96.625 27.3594C96.3438 27.3594 93.25 27.9844 87.3438 29.2344L81.125 30.5469C80.5938 30.6094 80.125 30.75 79.7188 30.9688C79.3229 31.1771 79.0938 31.6146 79.0312 32.2812L78.9062 33.0938C78.3958 35.9583 78.1406 38.2917 78.1406 40.0938L78.1562 40.9219L78.1406 41.8281L78.125 42.5C78.125 45.0729 78.6146 47.125 79.5938 48.6562C80.2083 49.5625 80.9844 50.1615 81.9219 50.4531C82.2344 50.5469 82.5573 50.5938 82.8906 50.5938ZM81.1406 29.0938C81.2969 29.0938 81.4635 29.0729 81.6406 29.0312C81.9635 29 82.2812 28.9427 82.5938 28.8594C82.7292 28.8177 82.8698 28.7812 83.0156 28.75C84.651 28.4271 86.2812 28.0781 87.9062 27.7031C90.8333 27.0156 93.7917 26.4427 96.7812 25.9844C97.3021 25.8906 97.7344 25.651 98.0781 25.2656C98.4219 24.8698 98.6302 24.474 98.7031 24.0781C98.7448 23.8177 98.8125 23.5208 98.9062 23.1875C99.0938 22.5729 99.2344 21.8646 99.3281 21.0625C99.349 20.9062 99.3594 20.7448 99.3594 20.5781C99.3594 19.9323 99.224 19.25 98.9531 18.5312C98.4115 16.1771 96.9688 15 94.625 15C94.0104 15 93.3333 15.0833 92.5938 15.25C90.8958 15.6146 89.3073 16.0625 87.8281 16.5938C86.3594 17.1146 84.9375 17.8125 83.5625 18.6875C83.1458 18.9583 82.6719 19.4062 82.1406 20.0312C81.7552 20.4896 81.3021 22.0104 80.7812 24.5938C80.5833 25.5521 80.3698 26.5104 80.1406 27.4688V27.5625C80.1406 28.3438 80.2708 28.8073 80.5312 28.9531C80.6979 29.0469 80.901 29.0938 81.1406 29.0938ZM76.0781 30.2344C76.5156 30.2344 76.974 30.1458 77.4531 29.9688C77.9323 29.7812 78.2188 29.3646 78.3125 28.7188C78.6146 27.6042 78.8906 26.3385 79.1406 24.9219C79.3281 23.8698 79.5208 22.9323 79.7188 22.1094C78.5104 22.6719 77.401 23.3698 76.3906 24.2031C75.3906 25.0365 74.5469 25.901 73.8594 26.7969L73.7188 26.9531C73.2292 27.474 72.9844 27.9427 72.9844 28.3594C72.9844 28.4427 73.0052 28.5938 73.0469 28.8125C73.0781 29.0312 73.375 29.3073 73.9375 29.6406C74.3125 29.9115 74.8281 30.0938 75.4844 30.1875C75.6823 30.2188 75.8802 30.2344 76.0781 30.2344ZM110.422 48.7344C110.12 48.7344 109.88 48.5365 109.703 48.1406C109.526 47.7448 109.401 47.3229 109.328 46.875C108.943 44.8854 108.75 42.9792 108.75 41.1562C108.75 39.8646 108.87 38.5729 109.109 37.2812V37.2188C109.109 37.1771 109.104 37.1302 109.094 37.0781C109.083 37.026 109.073 36.9688 109.062 36.9062C108.729 37.125 108.495 37.401 108.359 37.7344L106.094 41.6719C105.406 42.8281 104.703 43.6562 103.984 44.1562C103.641 44.3646 103.333 44.4688 103.062 44.4688C102.552 44.4688 102.177 44.1042 101.938 43.375C101.865 43.0625 101.828 42.7552 101.828 42.4531C101.828 42.1615 101.859 41.875 101.922 41.5938C102.37 39.2188 102.938 36.875 103.625 34.5625L104.031 33.0938C104.167 32.5625 104.406 32.2969 104.75 32.2969C105.042 32.2969 105.219 32.4479 105.281 32.75C105.312 32.9375 105.328 33.125 105.328 33.3125C105.328 33.6667 105.266 34.0156 105.141 34.3594C104.651 35.8073 104.24 37.2812 103.906 38.7812L103.672 39.8125C103.495 40.4479 103.406 41.1979 103.406 42.0625L103.422 42.5938C103.828 42.3229 104.146 42.0365 104.375 41.7344C104.646 41.3802 106.042 39.0417 108.562 34.7188C108.812 34.2917 109.083 33.875 109.375 33.4688C109.635 33.125 109.885 32.9531 110.125 32.9531C110.198 32.9531 110.281 32.9688 110.375 33C110.76 33.125 110.953 33.4531 110.953 33.9844C110.953 34.3385 110.911 34.8125 110.828 35.4062L110.75 35.9688C110.656 36.7188 110.542 37.4635 110.406 38.2031C110.208 39.2656 110.109 40.3229 110.109 41.375C110.109 43.2083 110.401 45.2917 110.984 47.625L111.016 47.7812C111.068 47.9271 111.094 48.0677 111.094 48.2031C111.094 48.224 111.089 48.276 111.078 48.3594C111.078 48.4531 110.979 48.5521 110.781 48.6562C110.656 48.7083 110.536 48.7344 110.422 48.7344ZM114.453 44.4219C114.359 44.4219 114.26 44.401 114.156 44.3594C113.75 44.1927 113.547 43.849 113.547 43.3281C113.547 43.0573 113.578 42.6927 113.641 42.2344C114.193 38.7865 114.844 35.6198 115.594 32.7344C115.76 32.0781 116 31.7344 116.312 31.7031C116.76 31.7031 116.984 31.9115 116.984 32.3281C116.984 32.5469 116.922 32.9271 116.797 33.4688C116.609 34.3958 116.411 35.2656 116.203 36.0781C115.87 37.3802 115.604 38.6979 115.406 40.0312C115.479 40.0417 115.573 40.0781 115.688 40.1406L117.547 37.4844C118.234 36.5156 119 35.6094 119.844 34.7656C120.521 34.1198 121.115 33.7969 121.625 33.7969C122.302 33.7969 122.828 34.4219 123.203 35.6719C123.484 36.349 123.625 36.8698 123.625 37.2344C123.625 37.724 123.422 37.9688 123.016 37.9688C122.557 37.9688 122.203 37.4062 121.953 36.2812C121.849 35.75 121.661 35.4844 121.391 35.4844C121.172 35.4844 120.917 35.6406 120.625 35.9531C119.646 36.9427 118.781 38.0208 118.031 39.1875L117.203 40.4375C116.828 41.0208 116.385 41.8177 115.875 42.8281C115.333 43.8906 114.859 44.4219 114.453 44.4219ZM144.031 52.0781C143.604 52.0781 142.958 51.9688 142.094 51.75C141.24 51.5312 140.411 50.7656 139.609 49.4531C138.578 47.6302 138.052 45.6979 138.031 43.6562C138 42.8854 137.984 42.1146 137.984 41.3438C137.984 40.3125 138.016 39.0885 138.078 37.6719C138.151 36.2552 138.365 34.6562 138.719 32.875C138.812 32.5 138.859 32.1979 138.859 31.9688C138.859 31.7396 138.812 31.5833 138.719 31.5C138.573 31.3646 138.208 31.2969 137.625 31.2969L136.719 31.3125C136.062 31.3125 135.432 31.2344 134.828 31.0781C133.453 30.6406 132.766 29.8698 132.766 28.7656C132.766 28.5365 132.792 28.2969 132.844 28.0469C133.115 27.1615 133.583 26.3594 134.25 25.6406C136.021 23.6198 138.068 21.8333 140.391 20.2812C141.745 19.3854 142.609 18.224 142.984 16.7969C143.401 14.7969 143.849 13.349 144.328 12.4531C144.547 12.0365 144.776 11.8281 145.016 11.8281C145.297 11.8281 145.589 12.099 145.891 12.6406C145.932 12.724 145.953 12.8281 145.953 12.9531C145.953 13.3906 145.682 14.1719 145.141 15.2969C144.891 15.849 144.667 16.3906 144.469 16.9219C145.531 16.4427 146.578 16.0104 147.609 15.625C148.422 15.3125 149.156 15.0104 149.812 14.7188C151.208 14.0833 152.688 13.6302 154.25 13.3594C154.833 13.2656 155.385 13.2188 155.906 13.2188C157.125 13.2188 158.292 13.5312 159.406 14.1562C160.521 14.7708 161.312 15.9062 161.781 17.5625C162.031 18.5417 162.156 19.5208 162.156 20.5C162.156 21.25 162.083 22 161.938 22.75C161.75 23.8438 161.312 25.6927 160.625 28.2969C159.979 30.724 158.849 33.7969 157.234 37.5156C156.214 39.8698 155.021 42.1667 153.656 44.4062C152.271 46.7083 150.75 48.5312 149.094 49.875C147.375 51.3438 145.688 52.0781 144.031 52.0781ZM144.234 50.5938C144.87 50.5938 145.531 50.4167 146.219 50.0625C147.812 49.1667 149.141 48.0573 150.203 46.7344C152.286 43.9531 154 41.0052 155.344 37.8906C156.688 34.776 157.859 31.6406 158.859 28.4844C158.911 28.3177 158.938 28.1719 158.938 28.0469C158.938 27.5885 158.615 27.3594 157.969 27.3594C157.688 27.3594 154.594 27.9844 148.688 29.2344L142.469 30.5469C141.938 30.6094 141.469 30.75 141.062 30.9688C140.667 31.1771 140.438 31.6146 140.375 32.2812L140.25 33.0938C139.74 35.9583 139.484 38.2917 139.484 40.0938L139.5 40.9219L139.484 41.8281L139.469 42.5C139.469 45.0729 139.958 47.125 140.938 48.6562C141.552 49.5625 142.328 50.1615 143.266 50.4531C143.578 50.5469 143.901 50.5938 144.234 50.5938ZM142.484 29.0938C142.641 29.0938 142.807 29.0729 142.984 29.0312C143.307 29 143.625 28.9427 143.938 28.8594C144.073 28.8177 144.214 28.7812 144.359 28.75C145.995 28.4271 147.625 28.0781 149.25 27.7031C152.177 27.0156 155.135 26.4427 158.125 25.9844C158.646 25.8906 159.078 25.651 159.422 25.2656C159.766 24.8698 159.974 24.474 160.047 24.0781C160.089 23.8177 160.156 23.5208 160.25 23.1875C160.438 22.5729 160.578 21.8646 160.672 21.0625C160.693 20.9062 160.703 20.7448 160.703 20.5781C160.703 19.9323 160.568 19.25 160.297 18.5312C159.755 16.1771 158.312 15 155.969 15C155.354 15 154.677 15.0833 153.938 15.25C152.24 15.6146 150.651 16.0625 149.172 16.5938C147.703 17.1146 146.281 17.8125 144.906 18.6875C144.49 18.9583 144.016 19.4062 143.484 20.0312C143.099 20.4896 142.646 22.0104 142.125 24.5938C141.927 25.5521 141.714 26.5104 141.484 27.4688V27.5625C141.484 28.3438 141.615 28.8073 141.875 28.9531C142.042 29.0469 142.245 29.0938 142.484 29.0938ZM137.422 30.2344C137.859 30.2344 138.318 30.1458 138.797 29.9688C139.276 29.7812 139.562 29.3646 139.656 28.7188C139.958 27.6042 140.234 26.3385 140.484 24.9219C140.672 23.8698 140.865 22.9323 141.062 22.1094C139.854 22.6719 138.745 23.3698 137.734 24.2031C136.734 25.0365 135.891 25.901 135.203 26.7969L135.062 26.9531C134.573 27.474 134.328 27.9427 134.328 28.3594C134.328 28.4427 134.349 28.5938 134.391 28.8125C134.422 29.0312 134.719 29.3073 135.281 29.6406C135.656 29.9115 136.172 30.0938 136.828 30.1875C137.026 30.2188 137.224 30.2344 137.422 30.2344ZM159.594 56.1562C159.083 56.1562 158.828 55.6875 158.828 54.75C158.828 54.4583 158.865 54.1667 158.938 53.875C159.469 51.3333 160.151 48.8333 160.984 46.375L161.281 45.4062C162.281 42.3229 163.37 39.2708 164.547 36.25C165.745 33.1042 166.411 31.2708 166.547 30.75C166.693 30.2188 166.943 29.9531 167.297 29.9531C167.734 29.9531 167.953 30.1823 167.953 30.6406C167.953 30.8802 167.885 31.1823 167.75 31.5469C167.062 33.3177 166.583 34.5677 166.312 35.2969C167.073 34.651 167.818 34 168.547 33.3438C168.776 33.125 169.083 32.8906 169.469 32.6406C170.01 32.2656 170.474 32.0781 170.859 32.0781C171.13 32.0781 171.411 32.1823 171.703 32.3906C172.151 32.7656 172.375 33.25 172.375 33.8438C172.375 34.4583 172.172 35.2135 171.766 36.1094C170.557 38.5469 168.896 40.6198 166.781 42.3281C166.094 42.9427 165.318 43.3698 164.453 43.6094C163.547 43.8177 162.99 44.3698 162.781 45.2656C162.458 46.4115 162.125 47.5521 161.781 48.6875C161.406 49.9271 161.047 51.1667 160.703 52.4062C160.391 53.375 160.234 54.3698 160.234 55.3906V55.5156C160.234 55.8385 160.068 56.0469 159.734 56.1406L159.594 56.1562ZM164.656 42.0781C164.812 42.0781 165.021 41.9635 165.281 41.7344C167.615 39.9844 169.375 37.8646 170.562 35.375C170.823 34.875 170.953 34.474 170.953 34.1719C170.953 34.026 170.927 33.875 170.875 33.7188C170.771 33.6771 170.672 33.6562 170.578 33.6562C170.37 33.6562 170.146 33.7708 169.906 34C169.865 34.0417 169.818 34.0781 169.766 34.1094C169.089 34.6719 168.396 35.3802 167.688 36.2344C166.365 37.776 165.276 39.3958 164.422 41.0938C164.266 41.3125 164.188 41.4948 164.188 41.6406C164.188 41.7552 164.245 41.8594 164.359 41.9531C164.464 42.0365 164.562 42.0781 164.656 42.0781ZM176.75 43.2812C176.073 43.2812 175.516 43.0938 175.078 42.7188C174.453 42.2083 174.141 41.3906 174.141 40.2656V40.1562C174.234 39.0417 174.547 37.9427 175.078 36.8594C175.599 35.7656 176.172 34.7969 176.797 33.9531C177.432 33.1094 177.953 32.5 178.359 32.125C178.911 31.6146 179.557 31.2604 180.297 31.0625C180.495 31 180.682 30.9688 180.859 30.9688C181.266 30.9688 181.625 31.125 181.938 31.4375C182.198 31.7917 182.328 32.1615 182.328 32.5469C182.328 32.776 182.281 33.0156 182.188 33.2656C181.958 33.776 181.625 34.2031 181.188 34.5469C180.062 35.5365 178.802 36.3125 177.406 36.875C176.75 37.2188 176.234 37.8177 175.859 38.6719C175.62 39.224 175.5 39.7448 175.5 40.2344C175.5 41.3177 175.948 41.8594 176.844 41.8594C177.656 41.8073 178.417 41.5885 179.125 41.2031C180.865 40.3594 183.156 39.0052 186 37.1406C186.375 36.8906 186.724 36.6667 187.047 36.4688C187.432 36.1771 187.755 36.0312 188.016 36.0312C188.203 36.0312 188.375 36.1458 188.531 36.375C188.615 36.5208 188.656 36.651 188.656 36.7656C188.656 37.026 188.411 37.276 187.922 37.5156C187.547 37.724 186.688 38.2969 185.344 39.2344C184.677 39.7031 184.031 40.1302 183.406 40.5156C182.781 40.8906 181.818 41.4062 180.516 42.0625C179.641 42.5417 178.724 42.9062 177.766 43.1562C177.401 43.2396 177.062 43.2812 176.75 43.2812ZM177.844 35.0625C179.156 34.5521 180.13 33.8802 180.766 33.0469C180.87 32.9115 180.922 32.7969 180.922 32.7031C180.922 32.6302 180.901 32.5625 180.859 32.5C180.776 32.3854 180.682 32.3281 180.578 32.3281C180.464 32.3281 180.344 32.3646 180.219 32.4375C179.135 33.0312 178.344 33.9062 177.844 35.0625ZM187.391 44.4219C187.297 44.4219 187.198 44.401 187.094 44.3594C186.688 44.1927 186.484 43.849 186.484 43.3281C186.484 43.0573 186.516 42.6927 186.578 42.2344C187.13 38.7865 187.781 35.6198 188.531 32.7344C188.698 32.0781 188.938 31.7344 189.25 31.7031C189.698 31.7031 189.922 31.9115 189.922 32.3281C189.922 32.5469 189.859 32.9271 189.734 33.4688C189.547 34.3958 189.349 35.2656 189.141 36.0781C188.807 37.3802 188.542 38.6979 188.344 40.0312C188.417 40.0417 188.51 40.0781 188.625 40.1406L190.484 37.4844C191.172 36.5156 191.938 35.6094 192.781 34.7656C193.458 34.1198 194.052 33.7969 194.562 33.7969C195.24 33.7969 195.766 34.4219 196.141 35.6719C196.422 36.349 196.562 36.8698 196.562 37.2344C196.562 37.724 196.359 37.9688 195.953 37.9688C195.495 37.9688 195.141 37.4062 194.891 36.2812C194.786 35.75 194.599 35.4844 194.328 35.4844C194.109 35.4844 193.854 35.6406 193.562 35.9531C192.583 36.9427 191.719 38.0208 190.969 39.1875L190.141 40.4375C189.766 41.0208 189.323 41.8177 188.812 42.8281C188.271 43.8906 187.797 44.4219 187.391 44.4219ZM197.766 44.8125C197.599 44.8125 197.427 44.7708 197.25 44.6875C196.719 44.375 196.453 43.9219 196.453 43.3281C196.453 42.901 196.495 42.5156 196.578 42.1719C197.307 39.151 198.771 36.5469 200.969 34.3594C201.729 33.599 202.521 33.2188 203.344 33.2188C203.781 33.2188 204.156 33.349 204.469 33.6094C204.885 33.9531 205.094 34.4427 205.094 35.0781C205.094 35.401 204.875 36.4948 204.438 38.3594C204.292 39.0052 204.219 39.6562 204.219 40.3125C204.219 40.6458 204.24 40.9844 204.281 41.3281C204.354 42.0885 204.651 42.4688 205.172 42.4688C205.38 42.4688 205.63 42.4062 205.922 42.2812C207.505 41.5521 209.589 39.8854 212.172 37.2812C212.63 36.8125 213.146 36.4219 213.719 36.1094C213.865 36.0469 214.01 36.0156 214.156 36.0156C214.302 36.026 214.422 36.0885 214.516 36.2031C214.62 36.3177 214.672 36.4271 214.672 36.5312C214.672 36.5625 214.661 36.6302 214.641 36.7344C214.62 36.8385 214.49 37.0104 214.25 37.25C213.823 37.6458 213.396 38.0521 212.969 38.4688C212.146 39.2604 211.307 40.0312 210.453 40.7812C208.12 42.8438 206.312 43.875 205.031 43.875C203.667 43.875 202.875 42.7292 202.656 40.4375L202.594 39.9219L200.562 42.625C200.052 43.3021 199.458 43.8958 198.781 44.4062C198.438 44.6771 198.099 44.8125 197.766 44.8125ZM198.188 43C198.354 43 198.505 42.8958 198.641 42.6875L198.672 42.6719L198.969 42.3125C200.583 40.4375 202.062 38.1771 203.406 35.5312C203.573 35.2917 203.656 35.0938 203.656 34.9375C203.656 34.8229 203.599 34.724 203.484 34.6406C203.38 34.5469 203.281 34.5 203.188 34.5C202.958 34.5 202.615 34.6875 202.156 35.0625C200.01 37.0833 198.615 39.5365 197.969 42.4219C197.948 42.5156 197.938 42.6094 197.938 42.7031C197.938 42.7969 197.974 42.8906 198.047 42.9844L198.188 43ZM209.875 58L209.719 57.9844C209.417 57.901 209.245 57.7448 209.203 57.5156C209.172 57.3698 209.156 57.1927 209.156 56.9844L209.172 56.5938C209.182 56.5625 209.188 56.526 209.188 56.4844L210.328 50.9531C212.193 41.8802 214.198 33.8438 216.344 26.8438C216.458 26.4271 216.516 26.1719 216.516 26.0781C216.516 25.7969 216.375 25.6562 216.094 25.6562L215.938 25.6719C211.323 26.1406 208.365 26.4531 207.062 26.6094C206.365 26.7031 204.943 26.9323 202.797 27.2969C202.557 27.3281 202.312 27.3438 202.062 27.3438C201.927 27.3438 201.812 27.3125 201.719 27.25C201.562 27.1667 201.484 27.026 201.484 26.8281C201.484 26.4635 201.917 26.1875 202.781 26C206.292 25.3333 209.823 24.8438 213.375 24.5312L214.109 24.4375C214.661 24.3438 215.208 24.2969 215.75 24.2969H215.812C216.344 24.2969 216.74 24.1667 217 23.9062C217.26 23.6354 217.438 23.2448 217.531 22.7344C217.677 22.0885 217.953 20.9844 218.359 19.4219C218.359 19.3177 218.453 18.9844 218.641 18.4219C218.724 18.1823 218.88 18.0625 219.109 18.0625C219.557 18.0625 219.781 18.3438 219.781 18.9062C219.781 19.125 219.75 19.3333 219.688 19.5312L219.406 20.6719C219.01 22.3177 218.812 23.2344 218.812 23.4219C218.812 23.5781 218.854 23.7083 218.938 23.8125C219.021 23.9167 219.286 23.974 219.734 23.9844C219.984 23.9844 220.354 24.0208 220.844 24.0938C221.333 24.1667 221.76 24.276 222.125 24.4219C222.5 24.5677 222.688 24.75 222.688 24.9688L222.672 25.0469C222.453 25.4635 222.031 25.6719 221.406 25.6719C221.031 25.6719 220.615 25.6146 220.156 25.5C219.875 25.4583 219.625 25.4375 219.406 25.4375C219.01 25.4375 218.677 25.526 218.406 25.7031C218.146 25.8802 217.911 26.349 217.703 27.1094C215.318 35.026 213.057 44.3281 210.922 55.0156C210.818 55.599 210.75 56.1927 210.719 56.7969C210.719 57.224 210.609 57.5469 210.391 57.7656C210.234 57.9219 210.062 58 209.875 58ZM220.188 44.0625C219.208 44.0521 218.583 43.651 218.312 42.8594C218.219 42.5677 218.172 42.2708 218.172 41.9688C218.172 41.6875 218.214 41.401 218.297 41.1094C218.776 39.1198 219.516 37.2344 220.516 35.4531C220.766 34.9427 221.042 34.6875 221.344 34.6875C221.438 34.6875 221.536 34.7135 221.641 34.7656C221.818 34.8802 221.906 35.026 221.906 35.2031C221.906 35.3594 221.656 35.9896 221.156 37.0938C220.688 38.0625 220.292 39.0625 219.969 40.0938C219.729 40.875 219.609 41.5052 219.609 41.9844C219.609 42.4323 219.792 42.6562 220.156 42.6562C220.323 42.6562 220.531 42.6094 220.781 42.5156C221.521 42.2344 222.245 41.9062 222.953 41.5312C225.318 40.2708 227.615 38.8958 229.844 37.4062C231.188 36.5 232.094 36.0469 232.562 36.0469C232.625 36.0469 232.693 36.0729 232.766 36.125C232.839 36.1667 232.901 36.2344 232.953 36.3281C233.005 36.4219 233.031 36.5052 233.031 36.5781C233.031 36.8073 232.807 37.0677 232.359 37.3594C228.703 39.8906 225.385 41.875 222.406 43.3125C221.625 43.7083 220.885 43.9583 220.188 44.0625ZM222.672 32.3281H222.578L222.391 32.3125C222.141 32.2083 222.016 32.0365 222.016 31.7969C222.016 31.6615 222.078 31.4583 222.203 31.1875C222.557 30.2188 222.958 29.5208 223.406 29.0938C223.573 28.9062 223.76 28.8125 223.969 28.8125C224.375 28.8125 224.604 29.0625 224.656 29.5625C224.635 29.5833 224.625 29.6146 224.625 29.6562C224.562 29.8125 224.505 29.901 224.453 29.9219C223.995 30.1823 223.641 30.6562 223.391 31.3438L223.219 31.7188C223.062 32.0938 222.88 32.2969 222.672 32.3281ZM232.781 44.2656C232.458 44.2656 232.141 44.1719 231.828 43.9844C231.359 43.6719 231.073 43.2708 230.969 42.7812C230.885 42.3958 230.844 41.974 230.844 41.5156C230.844 40.4427 231.099 39.1771 231.609 37.7188C231.641 37.6042 231.708 37.3958 231.812 37.0938C232 36.6771 232.094 36.2656 232.094 35.8594V35.6875C232.094 34.8333 232.583 34.2552 233.562 33.9531C234.667 33.5469 235.802 33.3385 236.969 33.3281C237.792 33.349 238.411 33.5833 238.828 34.0312C239.151 34.3646 239.312 34.7917 239.312 35.3125C239.312 35.4896 239.292 35.6771 239.25 35.875C238.562 39.1458 236.87 41.776 234.172 43.7656C233.714 44.099 233.25 44.2656 232.781 44.2656ZM232.953 42.9375C233.172 42.9375 233.448 42.7969 233.781 42.5156C234.125 42.2865 234.448 42 234.75 41.6562C235.969 40.3333 236.932 38.8646 237.641 37.25C237.839 36.7604 237.979 36.2604 238.062 35.75L238.078 35.625C238.078 35.1146 237.682 34.8594 236.891 34.8594C236.453 34.8594 235.88 34.9896 235.172 35.25C234.474 35.5 233.974 35.875 233.672 36.375C232.88 38.0208 232.375 39.724 232.156 41.4844L232.172 41.875L232.156 42.1094C232.156 42.2135 232.167 42.3333 232.188 42.4688C232.219 42.5938 232.318 42.7031 232.484 42.7969C232.651 42.8906 232.807 42.9375 232.953 42.9375ZM240.938 44.125C240.812 44.125 240.677 44.0938 240.531 44.0312C240.198 43.8438 240.031 43.5729 240.031 43.2188C240.031 42.9271 240.115 42.474 240.281 41.8594C241.167 39.0156 242.156 36.2083 243.25 33.4375C243.49 32.8125 243.771 32.5 244.094 32.5L244.25 32.5156C244.542 32.6094 244.688 32.8073 244.688 33.1094C244.688 33.3177 244.594 33.6615 244.406 34.1406L244.297 34.4844C244.036 35.2656 243.755 36.0469 243.453 36.8281C242.964 38.0781 242.542 39.3542 242.188 40.6562C242.24 40.6771 242.286 40.7031 242.328 40.7344C242.37 40.7552 242.411 40.776 242.453 40.7969L243.109 40.0625C243.609 39.5 244.115 38.9427 244.625 38.3906C245.417 37.5052 246.286 36.6979 247.234 35.9688C247.911 35.4688 248.484 35.2188 248.953 35.2188C249.714 35.2188 250.208 35.8854 250.438 37.2188L250.469 37.3281C250.562 37.9323 250.693 38.5208 250.859 39.0938C251.109 39.8854 251.458 40.2812 251.906 40.2812C252.188 40.2812 252.531 40.1615 252.938 39.9219C253.135 39.8177 253.88 39.2083 255.172 38.0938C256.474 36.9792 257.276 36.3333 257.578 36.1562C257.724 36.0833 257.859 36.0469 257.984 36.0469C258.016 36.0469 258.078 36.0521 258.172 36.0625C258.276 36.0625 258.38 36.1562 258.484 36.3438C258.536 36.4375 258.562 36.526 258.562 36.6094C258.562 36.7969 258.453 36.974 258.234 37.1406C258.026 37.3073 257.719 37.5729 257.312 37.9375C255.125 40 253.557 41.1979 252.609 41.5312C252.339 41.6146 252.089 41.6562 251.859 41.6562C251.13 41.6562 250.536 41.2812 250.078 40.5312C249.568 39.6667 249.255 38.7292 249.141 37.7188C249.089 37.1458 248.917 36.8594 248.625 36.8594C248.427 36.8594 248.172 36.9844 247.859 37.2344C246.766 38.099 245.776 39.0677 244.891 40.1406L243.922 41.2812C243.474 41.8125 243.021 42.3385 242.562 42.8594C241.833 43.7031 241.292 44.125 240.938 44.125ZM254.906 50.2812C254.615 50.2812 254.396 50.1198 254.25 49.7969C254.208 49.6927 254.188 49.5938 254.188 49.5C254.188 49.1771 254.37 48.9635 254.734 48.8594C255.266 48.7031 255.76 48.4844 256.219 48.2031C256.396 48.099 257.099 47.6302 258.328 46.7969C259.328 46.1406 260.198 45.3385 260.938 44.3906C261.229 44.0469 261.375 43.7448 261.375 43.4844C261.375 43.1094 261.068 42.8125 260.453 42.5938C260.089 42.4479 259.714 42.3125 259.328 42.1875C258.901 42.0521 258.484 41.901 258.078 41.7344C256.953 41.2448 256.391 40.5156 256.391 39.5469C256.391 39.1823 256.469 38.7865 256.625 38.3594C257.479 36.2552 258.766 34.4583 260.484 32.9688C260.839 32.6146 261.167 32.4375 261.469 32.4375C261.625 32.4375 261.786 32.4792 261.953 32.5625C262.266 32.7396 262.443 32.974 262.484 33.2656L262.5 33.5781C262.5 33.7656 262.479 33.9531 262.438 34.1406C262.156 35.349 261.729 36.5104 261.156 37.625C260.99 37.9479 260.797 38.1094 260.578 38.1094C260.505 38.1094 260.427 38.0938 260.344 38.0625C260.094 37.9688 259.969 37.7969 259.969 37.5469C259.969 37.4219 259.99 37.3021 260.031 37.1875C260.188 36.6979 260.438 35.9583 260.781 34.9688C259.49 35.9583 258.562 37.1771 258 38.625C257.865 38.9375 257.797 39.2031 257.797 39.4219C257.797 39.5469 257.833 39.7083 257.906 39.9062C257.99 40.0938 258.281 40.2969 258.781 40.5156C259.177 40.6927 259.583 40.8438 260 40.9688C260.344 41.0833 260.677 41.2031 261 41.3281C262.229 41.8177 262.844 42.4896 262.844 43.3438C262.844 43.8854 262.599 44.4948 262.109 45.1719C261.682 45.7656 261.198 46.2917 260.656 46.75C259.573 47.6458 258.219 48.5781 256.594 49.5469L256.172 49.7969C255.63 50.1198 255.208 50.2812 254.906 50.2812Z" fill="#D8A99E"/>
</svg>
