<svg width="16" height="16" viewBox="0 0 16 16" fill="none" xmlns="http://www.w3.org/2000/svg">
<path d="M1.19497 0.205025C0.921608 -0.0683417 0.478392 -0.0683417 0.205025 0.205025C-0.0683417 0.478392 -0.0683417 0.921608 0.205025 1.19497L6.71005 7.7L0.205027 14.205C-0.0683403 14.4784 -0.0683403 14.9216 0.205027 15.195C0.478394 15.4683 0.92161 15.4683 1.19498 15.195L7.7 8.68995L14.205 15.195C14.4784 15.4683 14.9216 15.4683 15.195 15.195C15.4683 14.9216 15.4683 14.4784 15.195 14.205L8.68995 7.7L15.195 1.19497C15.4683 0.921608 15.4683 0.478392 15.195 0.205025C14.9216 -0.0683417 14.4784 -0.0683417 14.205 0.205025L7.7 6.71005L1.19497 0.205025Z" fill="white"/>
</svg>
