<svg width="104" height="84" viewBox="0 0 104 84" fill="none" xmlns="http://www.w3.org/2000/svg">
<path d="M22.7747 41.0333C22.7747 38.4836 20.4569 36.5714 15.8211 35.2966C5.27473 32.5151 0.00154607 26.7204 0.0015453 17.9124C0.00154483 12.4654 1.50817 8.23528 4.52142 5.22203C7.53466 2.20879 11.7648 0.702162 17.2118 0.702161C22.543 0.702161 27.3526 3.42567 31.6406 8.8727C35.9287 14.4356 38.0728 21.2154 38.0728 29.2121C38.0728 37.2088 34.5959 48.2767 27.6423 62.4158C20.5728 76.5549 15.2996 83.6244 11.8228 83.6244C11.0115 83.6244 10.2002 83.1608 9.38898 82.2337C8.57772 81.3065 8.17209 80.3794 8.17209 79.4522C13.1555 69.7171 16.8641 61.5466 19.2979 54.9406C21.6158 48.3347 22.7747 43.6989 22.7747 41.0333ZM84.8361 38.4257C84.8361 36.6873 83.2135 35.2966 79.9685 34.2535C76.6076 33.3264 73.5364 31.1244 70.7549 27.6475C67.9735 24.1707 66.5827 20.2883 66.5827 16.0002C66.5827 11.3644 68.2052 7.71375 71.4503 5.04819C74.6953 2.38262 78.9255 1.04984 84.1407 1.04984C96.889 1.04984 103.263 8.87269 103.263 24.5184C103.263 32.5151 99.2649 43.4671 91.2682 57.3744C83.2715 71.3976 77.0712 78.4092 72.6672 78.4092C70.8129 78.4092 69.8857 77.0764 69.8857 74.4108C69.8857 73.7155 72.3774 68.79 77.3609 59.6343C82.3443 50.4787 84.8361 43.4091 84.8361 38.4257Z" fill="#89AAB0"/>
</svg>
