<svg width="41" height="40" viewBox="0 0 41 40" fill="none" xmlns="http://www.w3.org/2000/svg">
<path d="M29.9354 30.5645V28.0484C29.9354 26.7138 29.4052 25.4338 28.4615 24.4901C27.5178 23.5463 26.2378 23.0161 24.9032 23.0161H16.0967C14.7621 23.0161 13.4821 23.5463 12.5384 24.4901C11.5946 25.4338 11.0645 26.7138 11.0645 28.0484V30.5645" stroke="white" stroke-linecap="round" stroke-linejoin="round"/>
<path d="M20.4999 17.9839C23.2791 17.9839 25.5322 15.7309 25.5322 12.9516C25.5322 10.1724 23.2791 7.91937 20.4999 7.91937C17.7207 7.91937 15.4677 10.1724 15.4677 12.9516C15.4677 15.7309 17.7207 17.9839 20.4999 17.9839Z" stroke="white" stroke-linecap="round" stroke-linejoin="round"/>
<path d="M20.5 1H40V18.6129" stroke="white" stroke-linejoin="round"/>
<path d="M20.5 39.371L1 39.371L1 21.7581" stroke="white" stroke-linejoin="round"/>
</svg>
