<svg width="46" height="51" viewBox="0 0 46 51" fill="none" xmlns="http://www.w3.org/2000/svg">
<path d="M42.1666 37.26H30.6666L26.8333 40.595H19.1666L15.3333 37.26H3.83331" stroke="white" stroke-linecap="round" stroke-linejoin="round"/>
<path d="M10.4458 29.6006L3.83331 37.26V43.93C3.83331 44.5197 4.23718 45.0852 4.95607 45.5021C5.67496 45.9191 6.64998 46.1533 7.66665 46.1533H38.3333C39.35 46.1533 40.325 45.9191 41.0439 45.5021C41.7628 45.0852 42.1666 44.5197 42.1666 43.93V37.26L35.5541 29.6006C35.2368 29.2302 34.7476 28.9185 34.1415 28.7005C33.5354 28.4825 32.8365 28.3669 32.1233 28.3667H13.8766C13.1635 28.3669 12.4646 28.4825 11.8585 28.7005C11.2524 28.9185 10.7632 29.2302 10.4458 29.6006V29.6006Z" stroke="white" stroke-linecap="round" stroke-linejoin="round"/>
<g clip-path="url(#clip0_168_1269)">
<path d="M23.46 16.675C27.7577 16.675 31.2417 13.191 31.2417 8.89333C31.2417 4.59563 27.7577 1.11166 23.46 1.11166C19.1623 1.11166 15.6783 4.59563 15.6783 8.89333C15.6783 13.191 19.1623 16.675 23.46 16.675Z" stroke="white" stroke-linecap="round" stroke-linejoin="round"/>
<path d="M19.2468 15.441L17.9017 25.5683L23.46 22.2333L29.0183 25.5683L27.6732 15.4299" stroke="white" stroke-linecap="round" stroke-linejoin="round"/>
</g>
<defs>
<clipPath id="clip0_168_1269">
<rect width="26.68" height="26.68" fill="white" transform="translate(10.12)"/>
</clipPath>
</defs>
</svg>
